<svg width="252" height="20" viewBox="0 0 252 20" fill="none" xmlns="http://www.w3.org/2000/svg">
<path d="M50.7954 8.098C50.7954 8.91 50.5154 9.58667 49.9554 10.128C49.4047 10.66 48.56 10.926 47.4214 10.926H45.5454V15H44.2714V5.242H47.4214C48.5227 5.242 49.358 5.508 49.9274 6.04C50.506 6.572 50.7954 7.258 50.7954 8.098ZM47.4214 9.876C48.1307 9.876 48.6534 9.722 48.9894 9.414C49.3254 9.106 49.4934 8.66733 49.4934 8.098C49.4934 6.894 48.8027 6.292 47.4214 6.292H45.5454V9.876H47.4214ZM55.6528 5.242V15H54.3788V5.242H55.6528ZM59.3481 10.114C59.3481 9.162 59.5628 8.308 59.9921 7.552C60.4214 6.78667 61.0048 6.18933 61.7421 5.76C62.4888 5.33067 63.3148 5.116 64.2201 5.116C65.2841 5.116 66.2128 5.37267 67.0061 5.886C67.7994 6.39933 68.3781 7.12733 68.7421 8.07H67.2161C66.9454 7.482 66.5534 7.02933 66.0401 6.712C65.5361 6.39467 64.9294 6.236 64.2201 6.236C63.5388 6.236 62.9274 6.39467 62.3861 6.712C61.8448 7.02933 61.4201 7.482 61.1121 8.07C60.8041 8.64867 60.6501 9.33 60.6501 10.114C60.6501 10.8887 60.8041 11.57 61.1121 12.158C61.4201 12.7367 61.8448 13.1847 62.3861 13.502C62.9274 13.8193 63.5388 13.978 64.2201 13.978C64.9294 13.978 65.5361 13.824 66.0401 13.516C66.5534 13.1987 66.9454 12.746 67.2161 12.158H68.7421C68.3781 13.0913 67.7994 13.8147 67.0061 14.328C66.2128 14.832 65.2841 15.084 64.2201 15.084C63.3148 15.084 62.4888 14.874 61.7421 14.454C61.0048 14.0247 60.4214 13.432 59.9921 12.676C59.5628 11.92 59.3481 11.066 59.3481 10.114ZM78.6445 5.242V6.278H75.9845V15H74.7105V6.278H72.0365V5.242H78.6445ZM83.4588 5.242V11.416C83.4588 12.284 83.6688 12.928 84.0888 13.348C84.5181 13.768 85.1108 13.978 85.8668 13.978C86.6134 13.978 87.1968 13.768 87.6168 13.348C88.0461 12.928 88.2608 12.284 88.2608 11.416V5.242H89.5348V11.402C89.5348 12.214 89.3714 12.9 89.0448 13.46C88.7181 14.0107 88.2748 14.4213 87.7148 14.692C87.1641 14.9627 86.5434 15.098 85.8528 15.098C85.1621 15.098 84.5368 14.9627 83.9768 14.692C83.4261 14.4213 82.9874 14.0107 82.6608 13.46C82.3434 12.9 82.1848 12.214 82.1848 11.402V5.242H83.4588ZM98.798 15L96.474 11.01H94.934V15H93.66V5.242H96.81C97.5474 5.242 98.168 5.368 98.672 5.62C99.1854 5.872 99.568 6.21267 99.82 6.642C100.072 7.07133 100.198 7.56133 100.198 8.112C100.198 8.784 100.002 9.37667 99.61 9.89C99.2274 10.4033 98.6487 10.744 97.874 10.912L100.324 15H98.798ZM94.934 9.988H96.81C97.5007 9.988 98.0187 9.82 98.364 9.484C98.7094 9.13867 98.882 8.68133 98.882 8.112C98.882 7.53333 98.7094 7.08533 98.364 6.768C98.028 6.45067 97.51 6.292 96.81 6.292H94.934V9.988ZM105.452 6.278V9.54H109.008V10.59H105.452V13.95H109.428V15H104.178V5.228H109.428V6.278H105.452ZM116.449 15.098C115.805 15.098 115.227 14.986 114.713 14.762C114.209 14.5287 113.813 14.2113 113.523 13.81C113.234 13.3993 113.085 12.928 113.075 12.396H114.433C114.48 12.8533 114.667 13.2407 114.993 13.558C115.329 13.866 115.815 14.02 116.449 14.02C117.056 14.02 117.532 13.8707 117.877 13.572C118.232 13.264 118.409 12.872 118.409 12.396C118.409 12.0227 118.307 11.7193 118.101 11.486C117.896 11.2527 117.639 11.0753 117.331 10.954C117.023 10.8327 116.608 10.702 116.085 10.562C115.441 10.394 114.923 10.226 114.531 10.058C114.149 9.89 113.817 9.62867 113.537 9.274C113.267 8.91 113.131 8.42467 113.131 7.818C113.131 7.286 113.267 6.81467 113.537 6.404C113.808 5.99333 114.186 5.676 114.671 5.452C115.166 5.228 115.731 5.116 116.365 5.116C117.28 5.116 118.027 5.34467 118.605 5.802C119.193 6.25933 119.525 6.866 119.599 7.622H118.199C118.153 7.24867 117.957 6.922 117.611 6.642C117.266 6.35267 116.809 6.208 116.239 6.208C115.707 6.208 115.273 6.348 114.937 6.628C114.601 6.89867 114.433 7.28133 114.433 7.776C114.433 8.13067 114.531 8.42 114.727 8.644C114.933 8.868 115.18 9.04067 115.469 9.162C115.768 9.274 116.183 9.40467 116.715 9.554C117.359 9.73133 117.877 9.90867 118.269 10.086C118.661 10.254 118.997 10.52 119.277 10.884C119.557 11.2387 119.697 11.724 119.697 12.34C119.697 12.816 119.571 13.264 119.319 13.684C119.067 14.104 118.694 14.4447 118.199 14.706C117.705 14.9673 117.121 15.098 116.449 15.098ZM135.073 12.83H130.817L130.033 15H128.689L132.217 5.298H133.687L137.201 15H135.857L135.073 12.83ZM134.709 11.794L132.945 6.866L131.181 11.794H134.709ZM148.41 15H147.136L142.012 7.23V15H140.738V5.228H142.012L147.136 12.984V5.228H148.41V15ZM158.35 12.83H154.094L153.31 15H151.966L155.494 5.298H156.964L160.478 15H159.134L158.35 12.83ZM157.986 11.794L156.222 6.866L154.458 11.794H157.986ZM165.29 13.964H168.706V15H164.016V5.242H165.29V13.964ZM178.89 5.242L175.712 11.318V15H174.438V11.318L171.246 5.242H172.66L175.068 10.184L177.476 5.242H178.89ZM183.312 13.894H188.072V15H181.8V13.992L186.532 6.348H181.856V5.242H188.044V6.25L183.312 13.894ZM193.082 6.278V9.54H196.638V10.59H193.082V13.95H197.058V15H191.808V5.228H197.058V6.278H193.082ZM204.024 5.242C205.088 5.242 206.008 5.44267 206.782 5.844C207.566 6.236 208.164 6.80067 208.574 7.538C208.994 8.27533 209.204 9.14333 209.204 10.142C209.204 11.1407 208.994 12.0087 208.574 12.746C208.164 13.474 207.566 14.034 206.782 14.426C206.008 14.8087 205.088 15 204.024 15H200.986V5.242H204.024ZM204.024 13.95C205.284 13.95 206.246 13.6187 206.908 12.956C207.571 12.284 207.902 11.346 207.902 10.142C207.902 8.92867 207.566 7.98133 206.894 7.3C206.232 6.61867 205.275 6.278 204.024 6.278H202.26V13.95H204.024Z" fill="white"/>
</svg>
