<svg width="203" height="20" viewBox="0 0 203 20" fill="none" xmlns="http://www.w3.org/2000/svg">
<path d="M63.1204 12.83H58.8644L58.0804 15H56.7364L60.2644 5.298H61.7344L65.2484 15H63.9044L63.1204 12.83ZM62.7564 11.794L60.9924 6.866L59.2284 11.794H62.7564ZM68.31 10.114C68.31 9.162 68.5247 8.308 68.954 7.552C69.3833 6.78667 69.9667 6.18933 70.704 5.76C71.4507 5.33067 72.2767 5.116 73.182 5.116C74.246 5.116 75.1747 5.37267 75.968 5.886C76.7613 6.39933 77.34 7.12733 77.704 8.07H76.178C75.9073 7.482 75.5153 7.02933 75.002 6.712C74.498 6.39467 73.8913 6.236 73.182 6.236C72.5007 6.236 71.8893 6.39467 71.348 6.712C70.8067 7.02933 70.382 7.482 70.074 8.07C69.766 8.64867 69.612 9.33 69.612 10.114C69.612 10.8887 69.766 11.57 70.074 12.158C70.382 12.7367 70.8067 13.1847 71.348 13.502C71.8893 13.8193 72.5007 13.978 73.182 13.978C73.8913 13.978 74.498 13.824 75.002 13.516C75.5153 13.1987 75.9073 12.746 76.178 12.158H77.704C77.34 13.0913 76.7613 13.8147 75.968 14.328C75.1747 14.832 74.246 15.084 73.182 15.084C72.2767 15.084 71.4507 14.874 70.704 14.454C69.9667 14.0247 69.3833 13.432 68.954 12.676C68.5247 11.92 68.31 11.066 68.31 10.114ZM81.1245 10.114C81.1245 9.162 81.3391 8.308 81.7685 7.552C82.1978 6.78667 82.7811 6.18933 83.5185 5.76C84.2651 5.33067 85.0911 5.116 85.9965 5.116C87.0605 5.116 87.9891 5.37267 88.7825 5.886C89.5758 6.39933 90.1545 7.12733 90.5185 8.07H88.9925C88.7218 7.482 88.3298 7.02933 87.8165 6.712C87.3125 6.39467 86.7058 6.236 85.9965 6.236C85.3151 6.236 84.7038 6.39467 84.1625 6.712C83.6211 7.02933 83.1965 7.482 82.8885 8.07C82.5805 8.64867 82.4265 9.33 82.4265 10.114C82.4265 10.8887 82.5805 11.57 82.8885 12.158C83.1965 12.7367 83.6211 13.1847 84.1625 13.502C84.7038 13.8193 85.3151 13.978 85.9965 13.978C86.7058 13.978 87.3125 13.824 87.8165 13.516C88.3298 13.1987 88.7218 12.746 88.9925 12.158H90.5185C90.1545 13.0913 89.5758 13.8147 88.7825 14.328C87.9891 14.832 87.0605 15.084 85.9965 15.084C85.0911 15.084 84.2651 14.874 83.5185 14.454C82.7811 14.0247 82.1978 13.432 81.7685 12.676C81.3391 11.92 81.1245 11.066 81.1245 10.114ZM95.6609 5.242V11.416C95.6609 12.284 95.8709 12.928 96.2909 13.348C96.7202 13.768 97.3129 13.978 98.0689 13.978C98.8156 13.978 99.3989 13.768 99.8189 13.348C100.248 12.928 100.463 12.284 100.463 11.416V5.242H101.737V11.402C101.737 12.214 101.574 12.9 101.247 13.46C100.92 14.0107 100.477 14.4213 99.9169 14.692C99.3662 14.9627 98.7456 15.098 98.0549 15.098C97.3642 15.098 96.7389 14.9627 96.1789 14.692C95.6282 14.4213 95.1896 14.0107 94.8629 13.46C94.5456 12.9 94.3869 12.214 94.3869 11.402V5.242H95.6609ZM111 15L108.676 11.01H107.136V15H105.862V5.242H109.012C109.75 5.242 110.37 5.368 110.874 5.62C111.388 5.872 111.77 6.21267 112.022 6.642C112.274 7.07133 112.4 7.56133 112.4 8.112C112.4 8.784 112.204 9.37667 111.812 9.89C111.43 10.4033 110.851 10.744 110.076 10.912L112.526 15H111ZM107.136 9.988H109.012C109.703 9.988 110.221 9.82 110.566 9.484C110.912 9.13867 111.084 8.68133 111.084 8.112C111.084 7.53333 110.912 7.08533 110.566 6.768C110.23 6.45067 109.712 6.292 109.012 6.292H107.136V9.988ZM122.148 12.83H117.892L117.108 15H115.764L119.292 5.298H120.762L124.276 15H122.932L122.148 12.83ZM121.784 11.794L120.02 6.866L118.256 11.794H121.784ZM127.337 10.114C127.337 9.162 127.552 8.308 127.981 7.552C128.411 6.78667 128.994 6.18933 129.731 5.76C130.478 5.33067 131.304 5.116 132.209 5.116C133.273 5.116 134.202 5.37267 134.995 5.886C135.789 6.39933 136.367 7.12733 136.731 8.07H135.205C134.935 7.482 134.543 7.02933 134.029 6.712C133.525 6.39467 132.919 6.236 132.209 6.236C131.528 6.236 130.917 6.39467 130.375 6.712C129.834 7.02933 129.409 7.482 129.101 8.07C128.793 8.64867 128.639 9.33 128.639 10.114C128.639 10.8887 128.793 11.57 129.101 12.158C129.409 12.7367 129.834 13.1847 130.375 13.502C130.917 13.8193 131.528 13.978 132.209 13.978C132.919 13.978 133.525 13.824 134.029 13.516C134.543 13.1987 134.935 12.746 135.205 12.158H136.731C136.367 13.0913 135.789 13.8147 134.995 14.328C134.202 14.832 133.273 15.084 132.209 15.084C131.304 15.084 130.478 14.874 129.731 14.454C128.994 14.0247 128.411 13.432 127.981 12.676C127.552 11.92 127.337 11.066 127.337 10.114ZM147.46 5.242L144.282 11.318V15H143.008V11.318L139.816 5.242H141.23L143.638 10.184L146.046 5.242H147.46Z" fill="white"/>
</svg>
